<svg width="20" height="15" viewBox="0 0 20 15" fill="none" xmlns="http://www.w3.org/2000/svg">
<path d="M18.2924 1.41463C16.0192 -0.471544 12.3206 -0.471544 10.0474 1.41463L9.99996 1.45399L9.95253 1.41463C7.67943 -0.471544 3.98077 -0.471511 1.70759 1.41467C0.606421 2.32836 0 3.54321 0 4.83543C0 6.12761 0.606421 7.34246 1.70759 8.25619L9.72049 14.9051C9.87299 15.0316 10.127 15.0316 10.2795 14.9051C10.1271 15.0315 10.4319 15.0315 10.2795 14.9051L18.2924 8.25616C19.3935 7.34242 20 6.12755 20 4.83536C20 3.54321 19.3935 2.32836 18.2924 1.41463Z" fill="#FF4141"/>
</svg>
