<svg width="16" height="14" viewBox="0 0 16 14" fill="none" xmlns="http://www.w3.org/2000/svg">
<path fill-rule="evenodd" clip-rule="evenodd" d="M7.1092 0.228163C7.3926 0.531457 7.39161 1.02214 7.10699 1.32413L2.48776 6.22512H15.2726L15.3712 6.2322C15.7262 6.28351 15.9998 6.60775 15.9998 7.00009C15.9998 7.42809 15.6742 7.77505 15.2726 7.77505H2.48927L7.10703 12.6759L7.17762 12.7627C7.38945 13.0656 7.36682 13.4962 7.10916 13.7719C6.82573 14.0752 6.36526 14.0762 6.08065 13.7742L0.231128 7.56671C0.0950193 7.43133 0.00773621 7.24092 0.000495911 7.02875C-0.0068531 6.82026 0.0643492 6.60921 0.2141 6.45032L6.0807 0.225803L6.16242 0.150955C6.44758 -0.0734968 6.85156 -0.0475585 7.1092 0.228163Z" fill="#303030"/>
</svg>
