<svg width="25" height="22" viewBox="0 0 25 22" fill="none" xmlns="http://www.w3.org/2000/svg">
<path d="M22.8655 2.1996C20.024 -0.528122 15.4007 -0.528122 12.5592 2.1996L12.5 2.25652L12.4407 2.1996C9.59928 -0.528122 4.97597 -0.528074 2.13449 2.19965C0.758027 3.52101 0 5.27787 0 7.14663C0 9.01534 0.758027 10.7722 2.13449 12.0936L12.1506 21.709C12.3412 21.892 12.6588 21.892 12.8494 21.709L16.9726 17.7509C17.4232 17.3182 16.7245 16.6475 16.2738 17.08L12.5 20.7028L2.83327 11.4227C0.37716 9.06487 0.37716 5.2283 2.83327 2.87043C5.28943 0.512562 9.28581 0.512562 11.7419 2.87043L12.1506 3.26277C12.341 3.44558 12.6589 3.44558 12.8494 3.26277L13.2581 2.87043C15.7142 0.512562 19.7106 0.51261 22.1667 2.87048C23.3565 4.01267 24.0118 5.53127 24.0118 7.14658C24.0118 8.7619 23.3565 10.2805 22.1667 11.4227L19.1552 14.3136C18.7045 14.7463 19.4034 15.4172 19.854 14.9845L22.8655 12.0936C24.2419 10.7722 25 9.01525 25 7.14653C25 5.27787 24.2419 3.52101 22.8655 2.1996V2.1996Z" fill="#5F5E60"/>
<path d="M18.5896 15.8566C18.5087 15.6701 18.307 15.5501 18.0969 15.5651C17.8907 15.5799 17.7127 15.7207 17.6574 15.9119C17.5389 16.3221 18.0257 16.6653 18.3983 16.4382C18.5988 16.316 18.6795 16.0669 18.5896 15.8566Z" fill="#5F5E60"/>
</svg>
