<svg width="25" height="24" viewBox="0 0 25 24" fill="none" xmlns="http://www.w3.org/2000/svg">
<path d="M19.9713 17.0524C20.241 17.0524 20.4596 16.8425 20.4596 16.5836C20.4596 16.3247 20.241 16.1149 19.9713 16.1149C19.7016 16.1149 19.483 16.3247 19.483 16.5836C19.483 16.8425 19.7016 17.0524 19.9713 17.0524Z" fill="#5F5E60"/>
<path d="M24.6221 4.50534C24.3799 3.95592 24.0337 3.46275 23.5923 3.03905C23.1514 2.61581 22.6372 2.28314 22.0649 2.05087C21.4727 1.81017 20.8437 1.68816 20.1948 1.68816H20.1938C19.7885 1.68816 19.3852 1.73695 18.9951 1.83314C18.6172 1.92652 18.2515 2.06447 17.9077 2.24325C16.6528 0.817828 14.8183 0 12.8754 0C12.3447 0 11.8173 0.0605156 11.3066 0.180609C10.8105 0.297 10.3281 0.469641 9.87305 0.693937C9.42627 0.914016 9.00439 1.18378 8.62012 1.49625C8.23828 1.80689 7.89258 2.15972 7.5937 2.544C7.1958 2.27137 6.75923 2.05978 6.29536 1.9148C5.81538 1.76414 5.3144 1.68816 4.8061 1.68816H4.80513C4.1562 1.68816 3.52729 1.81017 2.93496 2.05087C2.3627 2.28314 1.84854 2.61581 1.40767 3.03905C0.96626 3.46275 0.619531 3.95587 0.377881 4.50534C0.127393 5.07398 0 5.67834 0 6.30145C0 7.497 0.475049 8.63105 1.33643 9.4935C1.75586 9.91341 2.24609 10.2494 2.79395 10.492C3.35845 10.7421 3.96094 10.8824 4.58496 10.9096L5.52935 23.5642C5.53813 23.6834 5.59282 23.7931 5.68359 23.8743C5.77397 23.9555 5.89214 24 6.01616 24H19.4531C19.5771 24 19.6953 23.9555 19.7857 23.8743C19.8765 23.7931 19.9312 23.6833 19.94 23.5642L20.3013 18.7229C20.3105 18.5976 20.2686 18.477 20.1831 18.3822C20.0977 18.2874 19.979 18.2302 19.8491 18.2213C19.8374 18.2203 19.8252 18.2198 19.8135 18.2198C19.5591 18.2198 19.3458 18.4113 19.3271 18.6553V18.6557L19.1419 21.1398H16.2238L16.3368 19.5876C16.3556 19.3291 16.1527 19.1049 15.8837 19.0868C15.6148 19.0685 15.3814 19.2636 15.3626 19.5221L15.2449 21.1398H10.2044L10.0867 19.5221C10.0679 19.2637 9.83491 19.0686 9.56558 19.0868C9.29653 19.1049 9.0937 19.3291 9.11255 19.5876L9.22549 21.1398H6.34766C6.34082 21.1398 6.33413 21.1405 6.32734 21.1408L5.55957 10.8508C6.05239 10.7671 6.55459 10.6041 7.01333 10.3758C7.25278 10.2566 7.34639 9.97345 7.22236 9.74334C7.09834 9.51333 6.80386 9.42333 6.56421 9.54248C6.07007 9.78844 5.51851 9.94031 5.00991 9.97088C4.9395 9.97402 4.8709 9.97589 4.80518 9.97589C3.78271 9.97589 2.82129 9.59348 2.09766 8.89955C1.375 8.20458 0.976562 7.28208 0.976562 6.30145C0.976562 5.32031 1.375 4.39739 2.09766 3.70298C2.82129 3.00905 3.78271 2.62664 4.80518 2.62664C5.62524 2.62664 6.41665 2.87836 7.07148 3.34059C6.89561 3.64556 6.75947 3.92963 6.66016 4.20038C6.57056 4.44478 6.70405 4.71277 6.9584 4.79887C7.01206 4.81706 7.06685 4.82569 7.12065 4.82569C7.32197 4.82569 7.51045 4.70513 7.5812 4.51228C7.69619 4.19864 8.15151 3.42398 8.16045 3.40467C9.202 1.85888 10.9574 0.938438 12.8754 0.938438C14.66 0.938438 16.2935 1.7242 17.3655 3.09558C17.3701 3.10228 17.9877 4.02858 18.1542 4.47089C18.2261 4.66186 18.4136 4.78064 18.6134 4.78064C18.6686 4.78064 18.7246 4.77159 18.7794 4.75252C19.033 4.66439 19.1643 4.39538 19.0725 4.15167C18.9307 3.7748 18.7333 3.39347 18.4853 3.01308C19.0135 2.75953 19.5959 2.62664 20.1947 2.62664C21.2172 2.62664 22.1786 3.00905 22.9022 3.70298C23.6249 4.39739 24.0229 5.32031 24.0233 6.30145C24.0243 8.25431 22.434 9.86602 20.4032 9.97069C20.3901 9.97134 20.2374 9.97069 20.1659 9.97069C19.5197 9.97069 18.9119 9.81066 18.3078 9.48136C18.0733 9.35353 17.7752 9.43261 17.6422 9.65798C17.5091 9.88336 17.5915 10.1698 17.826 10.2976C18.4902 10.6596 19.1885 10.8619 19.9053 10.9014L19.641 14.4436C19.6219 14.7016 19.8246 14.9264 20.0932 14.9452C20.1049 14.9461 20.1166 14.9466 20.1283 14.9466H20.1289C20.3833 14.9466 20.5971 14.7552 20.6152 14.5107L20.8871 10.8664C22.019 10.7097 23.059 10.1658 23.8148 9.33441C24.1894 8.92336 24.4813 8.45747 24.684 7.9493C24.8935 7.42378 25 6.86916 25 6.30145C25 5.67834 24.8726 5.07398 24.6221 4.50534V4.50534ZM19.0719 22.0782L18.9985 23.0616H6.4707L6.39731 22.0782H19.0719Z" fill="#5F5E60"/>
</svg>
