<svg width="24" height="24" viewBox="0 0 24 24" fill="none" xmlns="http://www.w3.org/2000/svg">
<path d="M23.7142 22.3347L18.1207 16.7412C17.7396 16.36 17.1223 16.36 16.7412 16.7412C16.36 17.122 16.36 17.7399 16.7412 18.1207L22.3347 23.7142C22.5252 23.9048 22.7747 24.0001 23.0244 24.0001C23.2739 24.0001 23.5236 23.9048 23.7142 23.7142C24.0953 23.3334 24.0953 22.7155 23.7142 22.3347Z" fill="#5F5E60"/>
<path d="M10.5691 0C4.74145 0 0 4.74145 0 10.5691C0 16.3971 4.74145 21.1382 10.5691 21.1382C16.3971 21.1382 21.1382 16.3971 21.1382 10.5691C21.1382 4.74145 16.3971 0 10.5691 0ZM10.5691 19.187C5.81724 19.187 1.95122 15.321 1.95122 10.5691C1.95122 5.81728 5.81724 1.95122 10.5691 1.95122C15.321 1.95122 19.187 5.81724 19.187 10.5691C19.187 15.321 15.321 19.187 10.5691 19.187Z" fill="#5F5E60"/>
</svg>
