<svg width="19" height="19" viewBox="0 0 19 19" fill="none" xmlns="http://www.w3.org/2000/svg">
<path d="M15.6426 12.5352C14.6821 12.5352 13.822 12.9733 13.2516 13.6601L10.8336 12.4574C10.4763 12.2798 10.0425 12.4253 9.86477 12.7827C9.68704 13.14 9.83265 13.5738 10.19 13.7515L12.6117 14.9559C12.5616 15.1769 12.5352 15.4068 12.5352 15.6426C12.5352 17.3561 13.9292 18.75 15.6426 18.75C17.356 18.75 18.75 17.3561 18.75 15.6426C18.75 13.9292 17.356 12.5352 15.6426 12.5352ZM15.6426 17.3047C14.7262 17.3047 13.9805 16.5591 13.9805 15.6426C13.9805 15.4154 14.0264 15.1986 14.1093 15.0011C14.1271 14.9748 14.1433 14.9471 14.1579 14.9179C14.1733 14.8869 14.1863 14.8553 14.1969 14.8233C14.483 14.3204 15.0239 13.9805 15.6426 13.9805C16.5591 13.9805 17.3047 14.7262 17.3047 15.6426C17.3047 16.5591 16.5591 17.3047 15.6426 17.3047Z" fill="#5F5E60"/>
<path d="M15.6426 0.25C13.9292 0.25 12.5352 1.64397 12.5352 3.35742C12.5352 3.59687 12.5624 3.83008 12.6139 4.0541L5.73641 7.50298C5.16594 6.82451 4.31118 6.39258 3.35742 6.39258C1.644 6.39258 0.25 7.78655 0.25 9.5C0.25 11.2135 1.644 12.6074 3.35742 12.6074C4.30706 12.6074 5.15857 12.1792 5.729 11.5058L6.89584 12.0996C7.00084 12.1531 7.11274 12.1784 7.22302 12.1784C7.48628 12.1784 7.74008 12.0341 7.86766 11.7834C8.04869 11.4276 7.90712 10.9926 7.55139 10.8115L6.38152 10.2162C6.43601 9.9862 6.46484 9.74639 6.46484 9.5C6.46484 9.25758 6.43695 9.02157 6.38416 8.79501L13.2581 5.34791C13.8286 6.03017 14.6858 6.46484 15.6426 6.46484C17.356 6.46484 18.75 5.07088 18.75 3.35742C18.75 1.64397 17.356 0.25 15.6426 0.25ZM3.35742 11.1621C2.44095 11.1621 1.69531 10.4165 1.69531 9.5C1.69531 8.58353 2.44095 7.83789 3.35742 7.83789C4.27389 7.83789 5.01953 8.58353 5.01953 9.5C5.01953 10.4165 4.27389 11.1621 3.35742 11.1621ZM15.6426 5.01953C14.7261 5.01953 13.9805 4.27389 13.9805 3.35742C13.9805 2.44095 14.7261 1.69531 15.6426 1.69531C16.5591 1.69531 17.3047 2.44095 17.3047 3.35742C17.3047 4.27389 16.5591 5.01953 15.6426 5.01953Z" fill="#5F5E60"/>
</svg>
