<svg width="16" height="16" viewBox="0 0 16 16" fill="none" xmlns="http://www.w3.org/2000/svg">
<path d="M2.04994 4.05C-0.680058 6.78 -0.680058 11.22 2.04994 13.95C3.41994 15.32 5.20994 16 6.99994 16C8.78994 16 10.5799 15.32 11.9499 13.95C15.4299 10.47 15.9999 0 15.9999 0C15.9999 0 5.52994 0.57 2.04994 4.05ZM10.5399 12.54C9.58994 13.48 8.33994 14 6.99994 14C6.10994 14 5.26994 13.75 4.51994 13.32C5.43994 10.44 7.13994 7.91 9.39994 6C6.76994 7.36 4.55994 9.46 3.02994 12C1.54994 10.04 1.67994 7.25 3.46994 5.46C5.20994 3.72 10.0399 2.65 13.7999 2.2C13.3499 5.96 12.2799 10.79 10.5399 12.54Z" fill="#323232"/>
</svg>
